<mxfile host="app.diagrams.net" modified="2024-03-15T19:38:14.513Z" agent="Mozilla/5.0 (Windows NT 10.0; Win64; x64) AppleWebKit/537.36 (KHTML, like Gecko) Chrome/122.0.0.0 Safari/537.36" version="24.0.7" etag="Cy_oFssQEj6VvKf14TQM" type="github">
  <diagram name="Page-1" id="8Pwu17wdG78Xfr5rq7hg">
    <mxGraphModel>
      <root>
        <mxCell id="0" />
        <mxCell id="1" parent="0" />
      </root>
    </mxGraphModel>
  </diagram>
</mxfile>
